<svg version="1.1"
	 xmlns="http://www.w3.org/2000/svg" xmlns:xlink="http://www.w3.org/1999/xlink" xmlns:a="http://ns.adobe.com/AdobeSVGViewerExtensions/3.0/"
	 x="0px" y="0px" width="209.2px" height="254.6px" viewBox="0 0 209.2 254.6" style="enable-background:new 0 0 209.2 254.6;"
	 xml:space="preserve">
<style type="text/css">
	.st0{fill:#FFFFFF;}
</style>
<defs>
</defs>
<g>
	<path class="st0" d="M196.2,107l1.9-19c3.2-25.2-6.2-47.4-23.2-60.5c-1.6-2.4-3.4-4.8-5.3-7C157.9,7.3,141.4,0,123.1,0
		C84,0,47.3,33,41.1,73.6l-4.8,32H21l-21,136h1.1l14.4,13h176.8l16.8-133.8L196.2,107z M22.7,107.6H38l5.1-33.7
		C49.1,34.2,85,2,123.1,2c17.8,0,33.7,7,45,19.8c12,13.7,17.2,32.1,14.7,51.9l-4.3,33.9h15.3l-16.6,132H2.3L22.7,107.6z"/>
	<path class="st0" d="M104.1,136.1c-9.4,0-18.1,7.8-19.5,17.3c-0.8,5.8,1.2,10.8,5.5,14.1l-9,37.1h27l2-35.4
		c5.4-3.4,8.2-10.4,8.9-15.7c0.6-4.8-0.6-9.1-3.5-12.5C112.7,137.8,108.7,136.1,104.1,136.1z M117,153.4c-0.7,5-3.3,11.8-8.4,14.7
		l-0.5-0.1l-2,34.6H94.4l5.8-32c-4.2-2.9-7.1-10-6-15.8c2-10.8,13.3-15.7,22-8.9c0,0,0,0,0,0C117.1,148.2,117.4,150.8,117,153.4z"/>
	<path class="st0" d="M119.3,27.4c-24.7,0-47.7,20.7-51.5,46.2l-5,34h90.8l4.5-33.7c1.7-12.8-1.7-24.7-9.4-33.5
		C141.3,32,130.9,27.4,119.3,27.4z M156.1,73.6l-4.2,32H80.5l2.6-17.7c3.7-25,26.3-45.4,50.5-45.4c6.2,0,11.8,1.3,16.8,3.7
		C155.4,54,157.4,63.5,156.1,73.6z"/>
</g>
</svg>