<svg version="1.1"
	 xmlns="http://www.w3.org/2000/svg" xmlns:xlink="http://www.w3.org/1999/xlink" xmlns:a="http://ns.adobe.com/AdobeSVGViewerExtensions/3.0/"
	 x="0px" y="0px" width="60.2px" height="28.8px" viewBox="0 0 60.2 28.8" style="enable-background:new 0 0 60.2 28.8;"
	 xml:space="preserve">
<style type="text/css">
	.st0{fill:#B2B2B2;}
	.st1{fill:#E5E5E5;}
</style>
<defs>
</defs>
<g>
	<g>
		<g>
			<g>
				<path class="st0" d="M49.4,24.9c0.3,0,2.4,0.1,2.2-0.3c-0.2-0.5-2.4-3.4-4.4-5.5c0,0,0,0,0,0c-2-2.2-3.8-4.6-4.7-7.3
					c-0.8-2.6-0.8-5.8,0.8-8C45,1.5,48,0.6,50.7,0.4c3.1-0.2,5.9,0.5,8.8,1.7l-0.2,1.1C59.2,4,58.8,4.9,58,5.1
					c-0.8,0.2-1.8-0.2-2.8-0.4c0,0,0,0,0,0c-3-0.9-7.9-0.7-8.7,3c-0.9,4.1,2.8,7.7,5.2,10.6c0,0,7.6,8.9,7.6,8.9
					c0.3,0.4,0.7,0.8,0.9,1.3c0.1,0.3-0.1,0.2-0.4,0.2l-19.1,0c0,0-0.2-1.6-0.2-1.6C40.5,25.7,41,25,42.1,25
					C42.3,24.9,49.4,24.9,49.4,24.9z"/>
				<path class="st0" d="M17.7,16.5c-0.7-2.1-2.5-3.9-4.7-4.4c-0.3-0.1-2.3-0.1-2.2-0.5c0.1-0.6,0.5-1.2,0.9-1.7l4.9-7.6
					c0.3-0.4,1-1.5,0.8-1.8c-0.1-0.2-2.1-0.2-2.1-0.2s-14-1-14,0c0,0-0.1,1.1-0.1,1.1C1,2.3,1.1,3.1,1.9,3.4c0.8,0.4,2.9,0,2.9,0
					h4.1c0,0,1.9,0.3,2,0.5c0.4,0.5-5.4,9.2-5.4,9.2c-0.2,0.3-1.1,1.7-0.4,1.7c1,0,2-0.2,3.1-0.3c1.7,0,3.6,0.3,4.8,1.6
					c1.3,1.3,1.7,3.6,1.2,5.3c-1.3,4.1-6.9,4.3-9.9,3.5v0c-1-0.2-2-0.5-2.7-0.3c-0.7,0.3-1.1,1.1-1.3,1.8l-0.2,1c4,1.6,9.3,2,13.2,0
					C17.2,25.5,19.1,20.7,17.7,16.5C17.4,15.6,17.9,17.4,17.7,16.5z"/>
				<path class="st0" d="M30.3,25c-0.3,0-2,0.1-1.9-0.3c0.2-0.5,2.8-3.4,4.8-5.5c0,0,0,0,0,0c1-2.2,3.5-4.6,4.4-7.3
					c0.8-2.6,0.6-5.8-1-8c-1.7-2.3-4.7-3.1-7.4-3.3c-3.1-0.2-6,0.5-8.8,1.7l0.2,1.1c0.1,0.7,0.9,1.6,1.6,1.8
					c0.8,0.2,2.1-0.2,3.1-0.4c0,0,0,0,0,0c2-0.9,7.5-0.7,8.3,3c0.9,4.1-3,7.7-5.4,10.6l-7.7,8.9c-0.3,0.4-0.7,0.8-0.9,1.3
					c-0.1,0.3,0.1,0.2,0.3,0.2l19.1,0c0,0,0.2-1.6,0.2-1.6c0.1-1.4-0.4-2.1-1.5-2.2C37.4,25,30.3,25,30.3,25z"/>
			</g>
			<g>
				<path class="st1" d="M49.3,23.6c-0.4-1.1-5.5-6.8-6.1-7.7c-0.6-0.9-2.8-1.9-4.3-0.3c-1,1.2-2.1,1.1-2.8,0.8
					c-1.8,2.3-5.2,6.5-5.6,7.1c-0.3,0.3,2.1,0.3,2.1,0.3h14.5C47.1,23.9,49.4,23.9,49.3,23.6z"/>
				<circle class="st1" cx="37.9" cy="14.7" r="0.7"/>
				<circle class="st1" cx="39" cy="13.4" r="0.5"/>
				<circle class="st1" cx="38.6" cy="12.1" r="0.3"/>
			</g>
		</g>
	</g>
</g>
</svg>