<svg version="1.1"
	 xmlns="http://www.w3.org/2000/svg" xmlns:xlink="http://www.w3.org/1999/xlink" xmlns:a="http://ns.adobe.com/AdobeSVGViewerExtensions/3.0/"
	 x="0px" y="0px" width="48px" height="48.7px" viewBox="0 0 48 48.7" style="enable-background:new 0 0 48 48.7;"
	 xml:space="preserve">
<style type="text/css">
	.st0{fill:#CBCBCB;}
</style>
<defs>
</defs>
<path class="st0" d="M32.4,5.6C25-1.9,13-1.9,5.6,5.6C-1.9,13-1.9,25,5.6,32.4c6.4,6.4,16.2,7.2,23.5,2.7l-0.2,0.2l13.4,13.4L48,43
	L34.7,29.7C39.7,22.3,39,12.1,32.4,5.6z M26.8,26.8c-4.3,4.3-11.3,4.3-15.6,0c-4.3-4.3-4.3-11.3,0-15.6c4.3-4.3,11.3-4.3,15.6,0
	C31.1,15.5,31.1,22.5,26.8,26.8z"/>
</svg>