<?xml version="1.0" encoding="UTF-8" standalone="no"?>
<!DOCTYPE svg PUBLIC "-//W3C//DTD SVG 1.1//EN"
 "http://www.w3.org/Graphics/SVG/1.1/DTD/svg11.dtd">
<!-- Generated by graphviz version 2.38.0 (20140413.2041)
 -->
<!-- Title: controllers_diagram Pages: 1 -->
<svg width="438pt" height="384pt"
 viewBox="0.00 0.00 438.00 384.00" xmlns="http://www.w3.org/2000/svg" xmlns:xlink="http://www.w3.org/1999/xlink">
<g id="graph0" class="graph" transform="scale(1 1) rotate(0) translate(172 212)">
<title>controllers_diagram</title>
<polygon fill="none" stroke="none" points="-172,172 -172,-212 266,-212 266,172 -172,172"/>
<!-- _diagram_info -->
<g id="node1" class="node"><title>_diagram_info</title>
<text text-anchor="start" x="-104" y="-21.6" font-family="Times,serif" font-size="13.00">Controllers diagram</text>
<text text-anchor="start" x="-104" y="-7.6" font-family="Times,serif" font-size="13.00">Date: May 21 2016 &#45; 20:29</text>
<text text-anchor="start" x="-104" y="6.4" font-family="Times,serif" font-size="13.00">Migration version: 20160518174217</text>
<text text-anchor="start" x="-104" y="20.4" font-family="Times,serif" font-size="13.00">Generated by RailRoady 1.4.2</text>
<text text-anchor="start" x="-104" y="34.4" font-family="Times,serif" font-size="13.00">http://railroady.prestonlee.com</text>
</g>
<!-- ApplicationController -->
<g id="node2" class="node"><title>ApplicationController</title>
<path fill="none" stroke="black" d="M138,125.5C138,125.5 250,125.5 250,125.5 256,125.5 262,119.5 262,113.5 262,113.5 262,44.5 262,44.5 262,38.5 256,32.5 250,32.5 250,32.5 138,32.5 138,32.5 132,32.5 126,38.5 126,44.5 126,44.5 126,113.5 126,113.5 126,119.5 132,125.5 138,125.5"/>
<text text-anchor="middle" x="194" y="47.7" font-family="Times,serif" font-size="14.00">ApplicationController</text>
<polyline fill="none" stroke="black" points="126,55.5 262,55.5 "/>
<text text-anchor="start" x="134" y="70.7" font-family="Times,serif" font-size="14.00">set_locale</text>
<polyline fill="none" stroke="black" points="126,78.5 262,78.5 "/>
<polyline fill="none" stroke="black" points="126,102.5 262,102.5 "/>
<text text-anchor="start" x="134" y="117.7" font-family="Times,serif" font-size="14.00">_layout</text>
</g>
<!-- JobsController -->
<g id="node3" class="node"><title>JobsController</title>
<path fill="none" stroke="black" d="M-72,-84.5C-72,-84.5 22,-84.5 22,-84.5 28,-84.5 34,-90.5 34,-96.5 34,-96.5 34,-195.5 34,-195.5 34,-201.5 28,-207.5 22,-207.5 22,-207.5 -72,-207.5 -72,-207.5 -78,-207.5 -84,-201.5 -84,-195.5 -84,-195.5 -84,-96.5 -84,-96.5 -84,-90.5 -78,-84.5 -72,-84.5"/>
<text text-anchor="middle" x="-25" y="-192.3" font-family="Times,serif" font-size="14.00">JobsController</text>
<polyline fill="none" stroke="black" points="-84,-184.5 34,-184.5 "/>
<text text-anchor="start" x="-76" y="-169.3" font-family="Times,serif" font-size="14.00">load_vimeo_video</text>
<text text-anchor="start" x="-76" y="-154.3" font-family="Times,serif" font-size="14.00">locked</text>
<text text-anchor="start" x="-76" y="-139.3" font-family="Times,serif" font-size="14.00">show</text>
<polyline fill="none" stroke="black" points="-84,-131.5 34,-131.5 "/>
<polyline fill="none" stroke="black" points="-84,-107.5 34,-107.5 "/>
<text text-anchor="start" x="-76" y="-92.3" font-family="Times,serif" font-size="14.00">_layout</text>
</g>
<!-- MessagesController -->
<g id="node4" class="node"><title>MessagesController</title>
<path fill="none" stroke="black" d="M82.5,-70.5C82.5,-70.5 183.5,-70.5 183.5,-70.5 189.5,-70.5 195.5,-76.5 195.5,-82.5 195.5,-82.5 195.5,-181.5 195.5,-181.5 195.5,-187.5 189.5,-193.5 183.5,-193.5 183.5,-193.5 82.5,-193.5 82.5,-193.5 76.5,-193.5 70.5,-187.5 70.5,-181.5 70.5,-181.5 70.5,-82.5 70.5,-82.5 70.5,-76.5 76.5,-70.5 82.5,-70.5"/>
<text text-anchor="middle" x="133" y="-178.3" font-family="Times,serif" font-size="14.00">MessagesController</text>
<polyline fill="none" stroke="black" points="70.5,-170.5 195.5,-170.5 "/>
<text text-anchor="start" x="78.5" y="-155.3" font-family="Times,serif" font-size="14.00">create</text>
<text text-anchor="start" x="78.5" y="-140.3" font-family="Times,serif" font-size="14.00">new</text>
<polyline fill="none" stroke="black" points="70.5,-132.5 195.5,-132.5 "/>
<polyline fill="none" stroke="black" points="70.5,-108.5 195.5,-108.5 "/>
<text text-anchor="start" x="78.5" y="-93.3" font-family="Times,serif" font-size="14.00">_layout</text>
<text text-anchor="start" x="78.5" y="-78.3" font-family="Times,serif" font-size="14.00">message_params</text>
</g>
<!-- PagesController -->
<g id="node5" class="node"><title>PagesController</title>
<path fill="none" stroke="black" d="M-156,167.5C-156,167.5 -76,167.5 -76,167.5 -70,167.5 -64,161.5 -64,155.5 -64,155.5 -64,86.5 -64,86.5 -64,80.5 -70,74.5 -76,74.5 -76,74.5 -156,74.5 -156,74.5 -162,74.5 -168,80.5 -168,86.5 -168,86.5 -168,155.5 -168,155.5 -168,161.5 -162,167.5 -156,167.5"/>
<text text-anchor="middle" x="-116" y="89.7" font-family="Times,serif" font-size="14.00">PagesController</text>
<polyline fill="none" stroke="black" points="-168,97.5 -64,97.5 "/>
<text text-anchor="start" x="-160" y="112.7" font-family="Times,serif" font-size="14.00">home</text>
<polyline fill="none" stroke="black" points="-168,120.5 -64,120.5 "/>
<polyline fill="none" stroke="black" points="-168,144.5 -64,144.5 "/>
<text text-anchor="start" x="-160" y="159.7" font-family="Times,serif" font-size="14.00">_layout</text>
</g>
</g>
</svg>
