<?xml version="1.0" encoding="UTF-8" standalone="no"?>
<!DOCTYPE svg PUBLIC "-//W3C//DTD SVG 1.1//EN"
 "http://www.w3.org/Graphics/SVG/1.1/DTD/svg11.dtd">
<!-- Generated by graphviz version 2.38.0 (20140413.2041)
 -->
<!-- Title: models_diagram Pages: 1 -->
<svg width="699pt" height="158pt"
 viewBox="0.00 0.00 698.80 158.00" xmlns="http://www.w3.org/2000/svg" xmlns:xlink="http://www.w3.org/1999/xlink">
<g id="graph0" class="graph" transform="scale(1 1) rotate(0) translate(4 154)">
<title>models_diagram</title>
<polygon fill="none" stroke="none" points="-4,4 -4,-154 694.796,-154 694.796,4 -4,4"/>
<!-- _diagram_info -->
<g id="node1" class="node"><title>_diagram_info</title>
<text text-anchor="start" x="8" y="-135.6" font-family="Times,serif" font-size="13.00">Models diagram</text>
<text text-anchor="start" x="8" y="-121.6" font-family="Times,serif" font-size="13.00">Date: May 21 2016 &#45; 20:29</text>
<text text-anchor="start" x="8" y="-107.6" font-family="Times,serif" font-size="13.00">Migration version: 20160518174217</text>
<text text-anchor="start" x="8" y="-93.6" font-family="Times,serif" font-size="13.00">Generated by RailRoady 1.4.2</text>
<text text-anchor="start" x="8" y="-79.6" font-family="Times,serif" font-size="13.00">http://railroady.prestonlee.com</text>
</g>
<!-- Job -->
<g id="node2" class="node"><title>Job</title>
<ellipse fill="none" stroke="black" cx="275" cy="-18" rx="27" ry="18"/>
<text text-anchor="middle" x="275" y="-14.3" font-family="Times,serif" font-size="14.00">Job</text>
</g>
<!-- Category -->
<g id="node3" class="node"><title>Category</title>
<ellipse fill="none" stroke="black" cx="275" cy="-111" rx="42.7926" ry="18"/>
<text text-anchor="middle" x="275" y="-107.3" font-family="Times,serif" font-size="14.00">Category</text>
</g>
<!-- Category&#45;&gt;Job -->
<g id="edge1" class="edge"><title>Category&#45;&gt;Job</title>
<path fill="none" stroke="#4b13fa" d="M275,-84.7285C275,-72.7246 275,-58.3622 275,-46.1291"/>
<ellipse fill="none" stroke="#4b13fa" cx="275" cy="-88.8836" rx="4" ry="4"/>
<polygon fill="#4b13fa" stroke="#4b13fa" points="275,-46.0397 279.5,-36.0396 275,-41.0397 275,-36.0397 275,-36.0397 275,-36.0397 275,-41.0397 270.5,-36.0397 275,-46.0397 275,-46.0397"/>
</g>
<!-- AdminUser -->
<g id="node4" class="node"><title>AdminUser</title>
<ellipse fill="none" stroke="black" cx="388" cy="-111" rx="51.9908" ry="18"/>
<text text-anchor="middle" x="388" y="-107.3" font-family="Times,serif" font-size="14.00">AdminUser</text>
</g>
<!-- Message -->
<g id="node5" class="node"><title>Message</title>
<polygon fill="none" stroke="black" points="522.5,-129 457.5,-129 457.5,-93 522.5,-93 522.5,-129"/>
<text text-anchor="middle" x="490" y="-107.3" font-family="Times,serif" font-size="14.00">Message</text>
</g>
<!-- Company -->
<g id="node6" class="node"><title>Company</title>
<ellipse fill="none" stroke="black" cx="586" cy="-111" rx="45.4919" ry="18"/>
<text text-anchor="middle" x="586" y="-107.3" font-family="Times,serif" font-size="14.00">Company</text>
</g>
<!-- Department -->
<g id="node7" class="node"><title>Department</title>
<ellipse fill="none" stroke="black" cx="527" cy="-18" rx="52.7911" ry="18"/>
<text text-anchor="middle" x="527" y="-14.3" font-family="Times,serif" font-size="14.00">Department</text>
</g>
<!-- Company&#45;&gt;Department -->
<g id="edge3" class="edge"><title>Company&#45;&gt;Department</title>
<path fill="none" stroke="#cc5709" d="M570.701,-86.4028C562.363,-73.5426 552.037,-57.6164 543.517,-44.4746"/>
<ellipse fill="none" stroke="#cc5709" cx="573.002" cy="-89.9529" rx="4.00002" ry="4.00002"/>
<polygon fill="#cc5709" stroke="#cc5709" points="543.393,-44.2839 541.729,-33.4451 540.673,-40.0885 537.953,-35.8932 537.953,-35.8932 537.953,-35.8932 540.673,-40.0885 534.177,-38.3413 543.393,-44.2839 543.393,-44.2839"/>
</g>
<!-- Employee -->
<g id="node8" class="node"><title>Employee</title>
<ellipse fill="none" stroke="black" cx="644" cy="-18" rx="46.5926" ry="18"/>
<text text-anchor="middle" x="644" y="-14.3" font-family="Times,serif" font-size="14.00">Employee</text>
</g>
<!-- Company&#45;&gt;Employee -->
<g id="edge2" class="edge"><title>Company&#45;&gt;Employee</title>
<path fill="none" stroke="#3f4204" d="M601.069,-86.3571C609.322,-73.4086 619.549,-57.3626 627.951,-44.1804"/>
<ellipse fill="none" stroke="#3f4204" cx="598.788" cy="-89.9361" rx="4.00002" ry="4.00002"/>
<polygon fill="#3f4204" stroke="#3f4204" points="628.055,-44.0178 637.224,-38.0036 630.742,-39.8014 633.429,-35.585 633.429,-35.585 633.429,-35.585 630.742,-39.8014 629.635,-33.1663 628.055,-44.0178 628.055,-44.0178"/>
</g>
</g>
</svg>
