<?xml version="1.0" encoding="UTF-8" standalone="no"?>
<!DOCTYPE svg PUBLIC "-//W3C//DTD SVG 1.1//EN"
 "http://www.w3.org/Graphics/SVG/1.1/DTD/svg11.dtd">
<!-- Generated by graphviz version 2.38.0 (20140413.2041)
 -->
<!-- Title: models_diagram Pages: 1 -->
<svg width="897pt" height="978pt"
 viewBox="0.00 0.00 896.50 978.00" xmlns="http://www.w3.org/2000/svg" xmlns:xlink="http://www.w3.org/1999/xlink">
<g id="graph0" class="graph" transform="scale(1 1) rotate(0) translate(4 974)">
<title>models_diagram</title>
<polygon fill="none" stroke="none" points="-4,4 -4,-974 892.5,-974 892.5,4 -4,4"/>
<!-- _diagram_info -->
<g id="node1" class="node"><title>_diagram_info</title>
<text text-anchor="start" x="8" y="-881.1" font-family="Times,serif" font-size="13.00">Models diagram</text>
<text text-anchor="start" x="8" y="-867.1" font-family="Times,serif" font-size="13.00">Date: May 21 2016 &#45; 20:29</text>
<text text-anchor="start" x="8" y="-853.1" font-family="Times,serif" font-size="13.00">Migration version: 20160518174217</text>
<text text-anchor="start" x="8" y="-839.1" font-family="Times,serif" font-size="13.00">Generated by RailRoady 1.4.2</text>
<text text-anchor="start" x="8" y="-825.1" font-family="Times,serif" font-size="13.00">http://railroady.prestonlee.com</text>
</g>
<!-- Job -->
<g id="node2" class="node"><title>Job</title>
<path fill="none" stroke="black" d="M215.5,-0.5C215.5,-0.5 380.5,-0.5 380.5,-0.5 386.5,-0.5 392.5,-6.5 392.5,-12.5 392.5,-12.5 392.5,-694.5 392.5,-694.5 392.5,-700.5 386.5,-706.5 380.5,-706.5 380.5,-706.5 215.5,-706.5 215.5,-706.5 209.5,-706.5 203.5,-700.5 203.5,-694.5 203.5,-694.5 203.5,-12.5 203.5,-12.5 203.5,-6.5 209.5,-0.5 215.5,-0.5"/>
<text text-anchor="middle" x="298" y="-691.3" font-family="Times,serif" font-size="14.00">Job</text>
<polyline fill="none" stroke="black" points="203.5,-683.5 392.5,-683.5 "/>
<text text-anchor="start" x="211.5" y="-668.3" font-family="Times,serif" font-size="14.00">id :INTEGER</text>
<text text-anchor="start" x="211.5" y="-653.3" font-family="Times,serif" font-size="14.00">video_url :varchar</text>
<text text-anchor="start" x="211.5" y="-638.3" font-family="Times,serif" font-size="14.00">title_pt :varchar</text>
<text text-anchor="start" x="211.5" y="-623.3" font-family="Times,serif" font-size="14.00">title_es :varchar</text>
<text text-anchor="start" x="211.5" y="-608.3" font-family="Times,serif" font-size="14.00">title_en :varchar</text>
<text text-anchor="start" x="211.5" y="-593.3" font-family="Times,serif" font-size="14.00">password :varchar</text>
<text text-anchor="start" x="211.5" y="-578.3" font-family="Times,serif" font-size="14.00">synopsis_pt :text</text>
<text text-anchor="start" x="211.5" y="-563.3" font-family="Times,serif" font-size="14.00">format_pt :text</text>
<text text-anchor="start" x="211.5" y="-548.3" font-family="Times,serif" font-size="14.00">genre_pt :text</text>
<text text-anchor="start" x="211.5" y="-533.3" font-family="Times,serif" font-size="14.00">subgenre_pt :text</text>
<text text-anchor="start" x="211.5" y="-518.3" font-family="Times,serif" font-size="14.00">running_time_pt :text</text>
<text text-anchor="start" x="211.5" y="-503.3" font-family="Times,serif" font-size="14.00">target_pt :text</text>
<text text-anchor="start" x="211.5" y="-488.3" font-family="Times,serif" font-size="14.00">created_by_pt :text</text>
<text text-anchor="start" x="211.5" y="-473.3" font-family="Times,serif" font-size="14.00">written_by_pt :text</text>
<text text-anchor="start" x="211.5" y="-458.3" font-family="Times,serif" font-size="14.00">directed_by_pt :text</text>
<text text-anchor="start" x="211.5" y="-443.3" font-family="Times,serif" font-size="14.00">player :text</text>
<text text-anchor="start" x="211.5" y="-428.3" font-family="Times,serif" font-size="14.00">created_at :datetime</text>
<text text-anchor="start" x="211.5" y="-413.3" font-family="Times,serif" font-size="14.00">updated_at :datetime</text>
<text text-anchor="start" x="211.5" y="-398.3" font-family="Times,serif" font-size="14.00">synopsis_es :text</text>
<text text-anchor="start" x="211.5" y="-383.3" font-family="Times,serif" font-size="14.00">synopsis_en :text</text>
<text text-anchor="start" x="211.5" y="-368.3" font-family="Times,serif" font-size="14.00">format_es :text</text>
<text text-anchor="start" x="211.5" y="-353.3" font-family="Times,serif" font-size="14.00">format_en :text</text>
<text text-anchor="start" x="211.5" y="-338.3" font-family="Times,serif" font-size="14.00">genre_es :text</text>
<text text-anchor="start" x="211.5" y="-323.3" font-family="Times,serif" font-size="14.00">genre_en :text</text>
<text text-anchor="start" x="211.5" y="-308.3" font-family="Times,serif" font-size="14.00">subgenre_es :text</text>
<text text-anchor="start" x="211.5" y="-293.3" font-family="Times,serif" font-size="14.00">subgenre_en :text</text>
<text text-anchor="start" x="211.5" y="-278.3" font-family="Times,serif" font-size="14.00">running_time_es :text</text>
<text text-anchor="start" x="211.5" y="-263.3" font-family="Times,serif" font-size="14.00">running_time_en :text</text>
<text text-anchor="start" x="211.5" y="-248.3" font-family="Times,serif" font-size="14.00">target_es :text</text>
<text text-anchor="start" x="211.5" y="-233.3" font-family="Times,serif" font-size="14.00">target_en :text</text>
<text text-anchor="start" x="211.5" y="-218.3" font-family="Times,serif" font-size="14.00">created_by_es :text</text>
<text text-anchor="start" x="211.5" y="-203.3" font-family="Times,serif" font-size="14.00">created_by_en :text</text>
<text text-anchor="start" x="211.5" y="-188.3" font-family="Times,serif" font-size="14.00">written_by_es :text</text>
<text text-anchor="start" x="211.5" y="-173.3" font-family="Times,serif" font-size="14.00">written_by_en :text</text>
<text text-anchor="start" x="211.5" y="-158.3" font-family="Times,serif" font-size="14.00">directed_by_es :text</text>
<text text-anchor="start" x="211.5" y="-143.3" font-family="Times,serif" font-size="14.00">directed_by_en :text</text>
<text text-anchor="start" x="211.5" y="-128.3" font-family="Times,serif" font-size="14.00">video_id :integer</text>
<text text-anchor="start" x="211.5" y="-113.3" font-family="Times,serif" font-size="14.00">video_thumb_small :varchar</text>
<text text-anchor="start" x="211.5" y="-98.3" font-family="Times,serif" font-size="14.00">video_thumb_medium :varchar</text>
<text text-anchor="start" x="211.5" y="-83.3" font-family="Times,serif" font-size="14.00">video_thumb_large :varchar</text>
<text text-anchor="start" x="211.5" y="-68.3" font-family="Times,serif" font-size="14.00">year :varchar</text>
<text text-anchor="start" x="211.5" y="-53.3" font-family="Times,serif" font-size="14.00">status_en :varchar</text>
<text text-anchor="start" x="211.5" y="-38.3" font-family="Times,serif" font-size="14.00">status_pt :varchar</text>
<text text-anchor="start" x="211.5" y="-23.3" font-family="Times,serif" font-size="14.00">status_es :varchar</text>
<text text-anchor="start" x="211.5" y="-8.3" font-family="Times,serif" font-size="14.00">category_id :integer</text>
</g>
<!-- Category -->
<g id="node3" class="node"><title>Category</title>
<path fill="none" stroke="black" d="M244.5,-811C244.5,-811 351.5,-811 351.5,-811 357.5,-811 363.5,-817 363.5,-823 363.5,-823 363.5,-890 363.5,-890 363.5,-896 357.5,-902 351.5,-902 351.5,-902 244.5,-902 244.5,-902 238.5,-902 232.5,-896 232.5,-890 232.5,-890 232.5,-823 232.5,-823 232.5,-817 238.5,-811 244.5,-811"/>
<text text-anchor="middle" x="298" y="-886.8" font-family="Times,serif" font-size="14.00">Category</text>
<polyline fill="none" stroke="black" points="232.5,-879 363.5,-879 "/>
<text text-anchor="start" x="240.5" y="-863.8" font-family="Times,serif" font-size="14.00">id :INTEGER</text>
<text text-anchor="start" x="240.5" y="-848.8" font-family="Times,serif" font-size="14.00">name :varchar</text>
<text text-anchor="start" x="240.5" y="-833.8" font-family="Times,serif" font-size="14.00">created_at :datetime</text>
<text text-anchor="start" x="240.5" y="-818.8" font-family="Times,serif" font-size="14.00">updated_at :datetime</text>
</g>
<!-- Category&#45;&gt;Job -->
<g id="edge1" class="edge"><title>Category&#45;&gt;Job</title>
<path fill="none" stroke="#f448ea" d="M298,-802.511C298,-779.175 298,-749.596 298,-716.801"/>
<ellipse fill="none" stroke="#f448ea" cx="298" cy="-806.599" rx="4" ry="4"/>
<polygon fill="#f448ea" stroke="#f448ea" points="298,-716.523 302.5,-706.523 298,-711.523 298,-706.523 298,-706.523 298,-706.523 298,-711.523 293.5,-706.523 298,-716.523 298,-716.523"/>
</g>
<!-- AdminUser -->
<g id="node4" class="node"><title>AdminUser</title>
<path fill="none" stroke="black" d="M394,-743.5C394,-743.5 570,-743.5 570,-743.5 576,-743.5 582,-749.5 582,-755.5 582,-755.5 582,-957.5 582,-957.5 582,-963.5 576,-969.5 570,-969.5 570,-969.5 394,-969.5 394,-969.5 388,-969.5 382,-963.5 382,-957.5 382,-957.5 382,-755.5 382,-755.5 382,-749.5 388,-743.5 394,-743.5"/>
<text text-anchor="middle" x="482" y="-954.3" font-family="Times,serif" font-size="14.00">AdminUser</text>
<polyline fill="none" stroke="black" points="382,-946.5 582,-946.5 "/>
<text text-anchor="start" x="390" y="-931.3" font-family="Times,serif" font-size="14.00">id :INTEGER</text>
<text text-anchor="start" x="390" y="-916.3" font-family="Times,serif" font-size="14.00">email :varchar</text>
<text text-anchor="start" x="390" y="-901.3" font-family="Times,serif" font-size="14.00">encrypted_password :varchar</text>
<text text-anchor="start" x="390" y="-886.3" font-family="Times,serif" font-size="14.00">reset_password_token :varchar</text>
<text text-anchor="start" x="390" y="-871.3" font-family="Times,serif" font-size="14.00">reset_password_sent_at :datetime</text>
<text text-anchor="start" x="390" y="-856.3" font-family="Times,serif" font-size="14.00">remember_created_at :datetime</text>
<text text-anchor="start" x="390" y="-841.3" font-family="Times,serif" font-size="14.00">sign_in_count :integer</text>
<text text-anchor="start" x="390" y="-826.3" font-family="Times,serif" font-size="14.00">current_sign_in_at :datetime</text>
<text text-anchor="start" x="390" y="-811.3" font-family="Times,serif" font-size="14.00">last_sign_in_at :datetime</text>
<text text-anchor="start" x="390" y="-796.3" font-family="Times,serif" font-size="14.00">current_sign_in_ip :varchar</text>
<text text-anchor="start" x="390" y="-781.3" font-family="Times,serif" font-size="14.00">last_sign_in_ip :varchar</text>
<text text-anchor="start" x="390" y="-766.3" font-family="Times,serif" font-size="14.00">created_at :datetime</text>
<text text-anchor="start" x="390" y="-751.3" font-family="Times,serif" font-size="14.00">updated_at :datetime</text>
</g>
<!-- Message -->
<g id="node5" class="node"><title>Message</title>
<polygon fill="none" stroke="black" points="600.5,-833.5 600.5,-879.5 665.5,-879.5 665.5,-833.5 600.5,-833.5"/>
<text text-anchor="middle" x="633" y="-864.3" font-family="Times,serif" font-size="14.00">Message</text>
<polyline fill="none" stroke="black" points="600.5,-856.5 665.5,-856.5 "/>
<text text-anchor="middle" x="633" y="-841.3" font-family="Times,serif" font-size="14.00"> </text>
</g>
<!-- Company -->
<g id="node6" class="node"><title>Company</title>
<path fill="none" stroke="black" d="M695.5,-758.5C695.5,-758.5 802.5,-758.5 802.5,-758.5 808.5,-758.5 814.5,-764.5 814.5,-770.5 814.5,-770.5 814.5,-942.5 814.5,-942.5 814.5,-948.5 808.5,-954.5 802.5,-954.5 802.5,-954.5 695.5,-954.5 695.5,-954.5 689.5,-954.5 683.5,-948.5 683.5,-942.5 683.5,-942.5 683.5,-770.5 683.5,-770.5 683.5,-764.5 689.5,-758.5 695.5,-758.5"/>
<text text-anchor="middle" x="749" y="-939.3" font-family="Times,serif" font-size="14.00">Company</text>
<polyline fill="none" stroke="black" points="683.5,-931.5 814.5,-931.5 "/>
<text text-anchor="start" x="691.5" y="-916.3" font-family="Times,serif" font-size="14.00">id :INTEGER</text>
<text text-anchor="start" x="691.5" y="-901.3" font-family="Times,serif" font-size="14.00">summary_pt :text</text>
<text text-anchor="start" x="691.5" y="-886.3" font-family="Times,serif" font-size="14.00">summary_en :text</text>
<text text-anchor="start" x="691.5" y="-871.3" font-family="Times,serif" font-size="14.00">summary_es :text</text>
<text text-anchor="start" x="691.5" y="-856.3" font-family="Times,serif" font-size="14.00">address_pt :text</text>
<text text-anchor="start" x="691.5" y="-841.3" font-family="Times,serif" font-size="14.00">address_en :text</text>
<text text-anchor="start" x="691.5" y="-826.3" font-family="Times,serif" font-size="14.00">address_es :text</text>
<text text-anchor="start" x="691.5" y="-811.3" font-family="Times,serif" font-size="14.00">email :text</text>
<text text-anchor="start" x="691.5" y="-796.3" font-family="Times,serif" font-size="14.00">telephone :text</text>
<text text-anchor="start" x="691.5" y="-781.3" font-family="Times,serif" font-size="14.00">created_at :datetime</text>
<text text-anchor="start" x="691.5" y="-766.3" font-family="Times,serif" font-size="14.00">updated_at :datetime</text>
</g>
<!-- Department -->
<g id="node7" class="node"><title>Department</title>
<path fill="none" stroke="black" d="M620.5,-270.5C620.5,-270.5 727.5,-270.5 727.5,-270.5 733.5,-270.5 739.5,-276.5 739.5,-282.5 739.5,-282.5 739.5,-424.5 739.5,-424.5 739.5,-430.5 733.5,-436.5 727.5,-436.5 727.5,-436.5 620.5,-436.5 620.5,-436.5 614.5,-436.5 608.5,-430.5 608.5,-424.5 608.5,-424.5 608.5,-282.5 608.5,-282.5 608.5,-276.5 614.5,-270.5 620.5,-270.5"/>
<text text-anchor="middle" x="674" y="-421.3" font-family="Times,serif" font-size="14.00">Department</text>
<polyline fill="none" stroke="black" points="608.5,-413.5 739.5,-413.5 "/>
<text text-anchor="start" x="616.5" y="-398.3" font-family="Times,serif" font-size="14.00">id :INTEGER</text>
<text text-anchor="start" x="616.5" y="-383.3" font-family="Times,serif" font-size="14.00">name_pt :varchar</text>
<text text-anchor="start" x="616.5" y="-368.3" font-family="Times,serif" font-size="14.00">name_en :varchar</text>
<text text-anchor="start" x="616.5" y="-353.3" font-family="Times,serif" font-size="14.00">name_es :varchar</text>
<text text-anchor="start" x="616.5" y="-338.3" font-family="Times,serif" font-size="14.00">created_at :datetime</text>
<text text-anchor="start" x="616.5" y="-323.3" font-family="Times,serif" font-size="14.00">updated_at :datetime</text>
<text text-anchor="start" x="616.5" y="-308.3" font-family="Times,serif" font-size="14.00">contact_id :integer</text>
<text text-anchor="start" x="616.5" y="-293.3" font-family="Times,serif" font-size="14.00">email :varchar</text>
<text text-anchor="start" x="616.5" y="-278.3" font-family="Times,serif" font-size="14.00">company_id :integer</text>
</g>
<!-- Company&#45;&gt;Department -->
<g id="edge3" class="edge"><title>Company&#45;&gt;Department</title>
<path fill="none" stroke="#68c1ca" d="M733.243,-750.245C719.787,-660.357 700.624,-532.35 687.772,-446.498"/>
<ellipse fill="none" stroke="#68c1ca" cx="733.858" cy="-754.352" rx="4.00001" ry="4.00001"/>
<polygon fill="#68c1ca" stroke="#68c1ca" points="687.757,-446.394 690.726,-435.837 687.016,-441.449 686.276,-436.504 686.276,-436.504 686.276,-436.504 687.016,-441.449 681.826,-437.17 687.757,-446.394 687.757,-446.394"/>
</g>
<!-- Employee -->
<g id="node8" class="node"><title>Employee</title>
<path fill="none" stroke="black" d="M769.5,-278C769.5,-278 876.5,-278 876.5,-278 882.5,-278 888.5,-284 888.5,-290 888.5,-290 888.5,-417 888.5,-417 888.5,-423 882.5,-429 876.5,-429 876.5,-429 769.5,-429 769.5,-429 763.5,-429 757.5,-423 757.5,-417 757.5,-417 757.5,-290 757.5,-290 757.5,-284 763.5,-278 769.5,-278"/>
<text text-anchor="middle" x="823" y="-413.8" font-family="Times,serif" font-size="14.00">Employee</text>
<polyline fill="none" stroke="black" points="757.5,-406 888.5,-406 "/>
<text text-anchor="start" x="765.5" y="-390.8" font-family="Times,serif" font-size="14.00">id :INTEGER</text>
<text text-anchor="start" x="765.5" y="-375.8" font-family="Times,serif" font-size="14.00">name :varchar</text>
<text text-anchor="start" x="765.5" y="-360.8" font-family="Times,serif" font-size="14.00">role_pt :varchar</text>
<text text-anchor="start" x="765.5" y="-345.8" font-family="Times,serif" font-size="14.00">role_en :varchar</text>
<text text-anchor="start" x="765.5" y="-330.8" font-family="Times,serif" font-size="14.00">role_es :varchar</text>
<text text-anchor="start" x="765.5" y="-315.8" font-family="Times,serif" font-size="14.00">created_at :datetime</text>
<text text-anchor="start" x="765.5" y="-300.8" font-family="Times,serif" font-size="14.00">updated_at :datetime</text>
<text text-anchor="start" x="765.5" y="-285.8" font-family="Times,serif" font-size="14.00">company_id :integer</text>
</g>
<!-- Company&#45;&gt;Employee -->
<g id="edge2" class="edge"><title>Company&#45;&gt;Employee</title>
<path fill="none" stroke="#f8350b" d="M764.539,-750.299C778.21,-657.739 797.857,-524.727 810.525,-438.96"/>
<ellipse fill="none" stroke="#f8350b" cx="763.94" cy="-754.351" rx="4.00001" ry="4.00001"/>
<polygon fill="#f8350b" stroke="#f8350b" points="810.535,-438.893 816.448,-429.658 811.265,-433.947 811.996,-429 811.996,-429 811.996,-429 811.265,-433.947 807.544,-428.343 810.535,-438.893 810.535,-438.893"/>
</g>
</g>
</svg>
